<?xml version="1.0" standalone="no"?>
<!DOCTYPE svg PUBLIC "-//W3C//DTD SVG 20010904//EN"
 "http://www.w3.org/TR/2001/REC-SVG-20010904/DTD/svg10.dtd">
<svg version="1.0" xmlns="http://www.w3.org/2000/svg"
 width="500.000000pt" height="500.000000pt" viewBox="0 0 500.000000 500.000000"
 preserveAspectRatio="xMidYMid meet">
<metadata>
Created by potrace 1.11, written by Peter Selinger 2001-2013
</metadata>
<g transform="translate(0.000000,500.000000) scale(0.100000,-0.100000)"
fill="#000000" stroke="none">
<path d="M270 4986 c0 -24 69 -245 106 -341 41 -104 242 -517 256 -526 6 -4
11 -20 12 -37 1 -17 5 -34 9 -39 5 -4 5 1 1 11 -12 31 13 10 30 -26 19 -36 20
-41 6 -33 -16 10 -12 -11 5 -25 11 -9 15 -9 15 -1 0 7 5 9 10 6 6 -3 10 -18
10 -33 0 -15 4 -22 8 -16 5 8 13 4 25 -12 10 -13 13 -24 7 -24 -5 0 -10 5 -10
10 0 6 -6 10 -12 10 -7 0 1 -13 19 -28 39 -34 48 -62 27 -88 -8 -10 -12 -13
-8 -5 5 11 3 13 -10 8 -9 -4 -15 -3 -11 2 3 5 -9 21 -26 35 -18 15 -27 31 -23
37 4 7 3 9 -4 5 -6 -3 -13 -2 -17 4 -3 5 -15 10 -26 10 -10 0 -19 7 -19 15 0
8 -7 15 -15 15 -9 0 -12 6 -9 15 5 11 2 13 -10 9 -9 -3 -16 -1 -16 5 0 6 -16
28 -36 48 -20 21 -63 79 -96 128 -33 50 -70 101 -83 115 -38 42 -75 108 -110
198 -37 95 -40 96 -25 7 6 -33 13 -76 16 -95 23 -154 42 -248 95 -466 16 -67
29 -127 29 -133 0 -22 -18 -1 -25 29 -4 20 -11 27 -21 23 -8 -3 -14 1 -14 8 0
12 -2 12 -9 1 -4 -8 -11 -13 -15 -13 -3 1 -19 1 -36 1 -26 0 -30 -4 -31 -27
-1 -49 -121 393 -135 498 -10 72 -20 51 -23 -44 -1 -83 4 -142 33 -367 14
-105 29 -335 19 -282 -7 38 -23 24 -23 -21 0 -23 -6 -51 -14 -62 -7 -11 -16
-38 -19 -60 -24 -162 -30 -196 -43 -240 -16 -58 -20 -131 -10 -160 8 -20 7
-20 -8 -1 -15 19 -16 18 -16 -15 0 -19 20 -97 44 -174 61 -196 113 -429 127
-570 7 -66 17 -133 24 -150 l12 -30 11 40 c13 47 32 225 32 297 l0 51 18 -24
c10 -13 35 -51 54 -84 20 -33 51 -79 68 -103 27 -38 33 -42 47 -30 14 11 16
10 11 -10 -4 -15 -2 -22 8 -22 8 0 14 -5 14 -11 0 -6 7 -9 15 -5 9 3 15 0 15
-8 0 -13 39 -30 49 -21 2 3 -1 5 -7 5 -7 0 -12 5 -12 10 0 6 7 10 16 10 14 0
14 3 4 15 -10 12 -10 19 -2 27 9 9 12 7 12 -8 0 -12 9 -31 20 -44 24 -27 26
-20 5 19 -22 43 -68 181 -62 187 3 3 10 -3 15 -13 15 -26 97 -128 172 -211 46
-51 67 -68 73 -59 6 9 8 8 4 -3 -3 -10 17 -37 51 -70 31 -30 49 -46 41 -35 -8
11 -21 26 -29 34 -15 13 -1 6 50 -24 8 -5 23 -8 33 -7 19 4 23 -14 5 -21 -10
-4 -10 -6 -1 -6 6 -1 15 4 18 9 11 18 26 10 20 -10 -4 -12 -2 -20 5 -20 6 0 8
5 5 10 -3 6 -1 10 6 10 6 0 9 -8 6 -20 -3 -14 -1 -20 8 -18 7 2 31 -17 54 -42
40 -42 41 -43 19 -9 -13 20 -55 83 -94 140 -38 57 -87 133 -106 169 -32 58
-34 66 -18 66 11 0 17 -2 15 -4 -2 -2 0 -9 5 -16 6 -6 21 -26 36 -44 31 -38
53 -33 25 6 -31 45 -92 163 -89 173 2 5 49 -37 105 -94 131 -131 169 -170 166
-171 -7 -2 11 -46 18 -46 13 0 11 5 -11 46 -12 20 -19 39 -16 41 9 9 46 -76
40 -92 -5 -11 -2 -14 11 -9 12 5 15 14 11 33 -5 22 -4 23 4 8 6 -9 8 -27 4
-40 l-6 -22 24 23 c22 20 26 21 32 7 3 -9 3 -29 0 -43 -4 -18 -3 -23 4 -14 7
10 13 5 25 -20 9 -18 17 -27 17 -19 0 20 -44 145 -53 149 -4 2 -5 7 -2 11 2 5
-12 25 -33 44 -20 20 -53 56 -72 79 -30 38 -111 114 -235 222 l-40 35 40 -5
40 -6 -30 21 c-35 24 -43 42 -44 94 -1 53 14 79 42 73 12 -3 16 -3 9 0 -6 3
-10 10 -7 15 7 11 44 -12 115 -72 71 -59 94 -71 125 -63 21 5 27 2 32 -14 3
-12 16 -28 28 -36 22 -15 25 -14 52 17 16 18 35 47 42 65 7 18 17 32 22 32 10
0 -16 76 -37 108 -9 13 -18 21 -21 18 -4 -3 1 -14 10 -24 25 -27 25 -116 0
-149 -24 -33 -74 -49 -85 -28 -5 8 -14 20 -21 27 -25 27 -48 70 -54 101 -16
96 -15 103 12 135 l27 32 -26 0 c-35 0 -33 18 2 23 l27 4 -30 2 -30 3 25 9
c25 9 -18 5 -121 -10 -89 -14 -223 -99 -258 -165 -8 -14 -17 -26 -21 -26 -3 0
-11 19 -18 43 -6 23 -18 63 -26 89 l-15 47 46 46 c26 25 60 52 77 59 17 7 42
18 56 24 24 10 24 11 3 11 -71 3 -183 -47 -183 -81 0 -6 8 -4 18 5 28 26 35
20 10 -8 -20 -23 -22 -24 -34 -7 -22 31 -58 203 -45 212 7 4 53 15 104 25 87
17 97 17 171 1 44 -9 81 -14 83 -12 2 2 -40 18 -93 35 -103 33 -153 37 -234
20 -28 -6 -53 -9 -55 -7 -6 5 -40 174 -55 268 -6 41 -22 137 -35 212 -13 76
-26 175 -30 220 l-6 83 47 -80 c26 -44 77 -129 112 -190 169 -286 259 -404
597 -790 50 -56 141 -162 203 -234 104 -120 135 -152 116 -118 -4 6 -14 20
-22 30 -8 9 -12 17 -8 17 4 0 -4 15 -18 33 -15 17 -30 37 -35 42 -4 6 -1 17 7
25 14 12 15 12 10 -1 -3 -8 3 -26 14 -40 13 -16 18 -18 14 -7 -6 20 -49 163
-76 253 -10 33 -25 87 -34 120 -9 33 -27 100 -40 150 -14 49 -23 91 -21 93 10
11 56 -35 66 -66 6 -20 17 -50 24 -67 8 -16 28 -71 46 -122 18 -51 35 -91 37
-89 2 2 -2 39 -8 83 -7 43 -14 98 -17 122 l-6 45 39 -24 c73 -44 156 -90 161
-90 3 0 1 6 -5 13 -6 6 -10 17 -10 22 -1 6 -11 17 -23 25 -15 9 -20 10 -16 3
6 -9 3 -11 -7 -7 -8 3 -13 11 -10 17 2 7 -11 22 -28 34 -18 13 -51 40 -73 60
-44 41 -37 18 -91 304 -15 84 -15 88 5 130 l21 44 -5 -42 c-2 -24 -2 -43 0
-43 2 0 16 37 30 83 14 45 36 99 49 120 35 57 120 150 176 193 27 21 50 42 50
47 0 7 -26 -12 -158 -118 -49 -40 -97 -103 -148 -199 -47 -87 -43 -89 -63 19
-5 28 -19 94 -31 148 -26 115 -27 109 66 260 74 118 117 172 172 215 l39 32
55 -48 c30 -26 76 -65 102 -87 165 -136 236 -197 236 -203 0 -4 -33 -25 -73
-46 -196 -107 -275 -186 -362 -365 -49 -99 -63 -137 -46 -127 6 4 11 14 11 22
0 8 5 13 12 12 6 -2 21 15 32 37 27 52 25 49 31 44 2 -3 1 -20 -4 -37 -6 -19
-6 -34 0 -37 5 -4 9 -1 9 5 0 6 4 9 9 5 5 -3 7 -21 4 -40 -8 -47 12 -45 28 3
16 45 16 46 18 75 0 13 8 32 16 43 15 18 15 18 13 -11 -1 -16 3 -39 9 -49 9
-17 13 -12 24 38 7 31 16 59 20 61 4 3 5 15 2 28 -4 16 1 12 17 -13 35 -54
165 -180 186 -180 11 0 30 9 43 19 22 17 23 19 7 49 -33 64 -27 69 75 71 65 1
95 6 106 16 8 8 18 15 23 15 4 0 13 14 20 30 13 32 30 40 30 15 0 -8 4 -15 9
-15 12 0 21 114 9 118 -5 2 -6 20 -2 40 l6 37 -19 -28 c-30 -42 -54 -56 -99
-57 -46 0 -94 30 -94 58 0 32 39 81 76 97 46 19 98 19 114 1 6 -8 21 -16 33
-18 14 -2 21 -9 19 -20 -1 -9 2 -19 8 -23 5 -3 10 -22 10 -41 0 -21 4 -33 10
-29 5 3 10 21 10 38 0 54 14 63 44 27 14 -17 26 -37 27 -43 1 -17 7 -53 19
-110 32 -155 53 -495 35 -577 -5 -24 -4 -32 3 -25 15 15 51 230 59 351 3 57 9
101 13 97 4 -4 17 -33 28 -63 124 -325 159 -407 213 -498 33 -57 62 -102 64
-100 1 2 5 93 8 204 4 111 10 211 15 224 8 20 11 15 32 -41 13 -35 41 -99 62
-142 21 -43 38 -80 38 -82 0 -9 73 -136 76 -132 4 3 -53 383 -61 404 -8 24
-54 379 -60 473 -10 138 -15 193 -21 213 -3 9 -1 17 5 17 6 0 11 -10 11 -22 0
-11 14 -70 31 -130 17 -60 29 -122 27 -138 -2 -16 -1 -27 3 -24 4 2 12 -19 18
-48 6 -29 24 -116 40 -193 16 -77 33 -164 37 -192 14 -110 23 -45 24 170 0
195 -9 361 -39 692 -4 50 -7 91 -6 93 1 1 11 -21 23 -50 11 -29 23 -60 27 -69
3 -9 -1 -23 -10 -33 -9 -9 -13 -21 -9 -28 5 -7 10 -4 16 11 4 13 13 19 19 15
8 -5 8 -8 0 -13 -8 -6 -7 -17 3 -42 9 -19 16 -27 16 -19 1 22 30 -18 30 -42 0
-10 4 -18 8 -18 5 0 19 -22 31 -50 36 -79 122 -234 134 -242 21 -13 18 -1 -17
68 -41 82 -156 400 -181 499 -31 123 -27 156 34 280 l54 110 19 -60 c21 -65
20 -86 -7 -243 -9 -54 -15 -132 -13 -185 3 -91 3 -92 28 -90 85 7 110 6 117
-1 4 -4 9 -78 10 -164 2 -139 4 -159 22 -183 20 -26 20 -28 2 -51 -19 -25 -37
-108 -22 -108 4 0 11 18 14 41 3 23 14 51 26 62 11 12 34 53 52 90 28 60 30
72 20 100 -8 25 -10 26 -6 6 5 -29 -17 -83 -29 -72 -4 4 -4 0 -1 -8 3 -9 -1
-22 -9 -29 -9 -7 -13 -17 -9 -22 3 -6 0 -8 -8 -6 -8 3 -13 12 -13 21 1 9 -2
15 -6 12 -13 -8 -18 18 -8 50 11 41 10 208 -2 240 -5 14 -6 24 -1 21 10 -6 25
24 16 32 -3 3 -5 0 -5 -6 0 -7 -8 -12 -17 -12 -15 0 -16 2 -3 10 13 8 13 9 0
14 -32 10 -130 14 -125 5 4 -5 13 -9 22 -9 22 0 14 -6 -19 -14 l-28 -6 0 58
c0 88 19 172 39 172 10 0 17 8 17 20 0 25 -5 25 -22 3 -11 -15 -13 -16 -14 -3
0 19 19 40 37 40 14 0 16 -49 3 -90 -8 -24 -8 -24 -9 -2 -1 12 -5 22 -11 22
-9 0 -16 -75 -11 -124 0 -10 -4 -25 -11 -33 -10 -12 -7 -13 15 -8 17 5 27 3
27 -4 0 -6 7 -11 16 -11 30 0 40 23 37 89 -3 81 8 107 30 65 8 -16 13 -43 11
-59 -3 -21 -2 -25 4 -12 7 17 9 16 20 -8 7 -15 15 -25 19 -22 3 4 -9 45 -27
92 -17 48 -33 92 -34 98 -1 7 -5 18 -10 25 -4 7 -10 45 -12 85 -3 40 -7 82 -9
94 -3 12 -1 25 5 28 5 3 10 17 10 31 0 13 4 24 9 24 21 0 102 -85 154 -164 68
-101 103 -175 146 -310 l32 -99 -60 -181 c-34 -100 -75 -224 -92 -276 -17 -52
-43 -113 -58 -135 -32 -45 -64 -105 -59 -110 7 -8 111 159 125 202 l17 48 13
-50 c27 -103 59 -313 62 -405 4 -150 -39 -366 -105 -522 -18 -43 -29 -78 -25
-78 4 0 25 23 47 50 21 28 49 62 62 78 19 23 132 242 174 338 12 28 13 27 15
-31 3 -63 20 -255 29 -315 15 -105 85 -313 100 -298 2 2 -1 20 -6 39 -10 35
-14 126 -5 117 3 -3 12 -32 20 -64 9 -32 18 -66 22 -74 3 -8 7 -18 7 -22 1 -3
5 -10 10 -15 5 -5 6 -3 2 5 -8 13 10 17 18 3 6 -9 -16 -30 -154 -151 -85 -74
-187 -166 -211 -189 -9 -9 -49 -47 -89 -86 -90 -87 -143 -161 -211 -293 -42
-82 -55 -100 -64 -90 -7 7 -56 68 -109 135 l-96 123 0 77 c0 43 7 122 15 176
19 127 88 397 130 512 50 135 70 214 100 385 14 85 29 164 32 175 4 14 2 17
-5 10 -14 -13 -46 -124 -87 -305 -19 -80 -46 -172 -60 -205 -15 -33 -39 -87
-53 -120 -95 -219 -285 -560 -387 -695 -19 -25 -70 -97 -114 -160 -43 -63 -89
-121 -101 -128 -12 -7 -36 -11 -58 -7 -35 5 -36 4 -9 -6 15 -6 39 -8 54 -4 27
6 85 62 131 124 111 152 162 187 254 177 66 -6 120 -31 161 -71 l27 -28 -37
-41 c-20 -22 -46 -50 -57 -62 -145 -146 -202 -211 -135 -153 13 11 46 39 73
62 28 23 79 68 115 99 36 32 68 58 72 58 11 0 56 -57 83 -103 47 -83 46 -92
-38 -310 -14 -37 -26 -71 -25 -75 1 -12 49 98 76 173 14 39 60 142 103 230
111 226 162 286 465 550 71 61 120 106 202 182 18 18 21 26 13 40 -29 53 -53
156 -59 268 -4 66 -6 121 -5 123 1 1 14 -29 30 -67 16 -38 33 -67 38 -64 5 4
6 1 2 -6 -10 -16 23 -66 35 -54 5 5 5 23 -1 43 -15 54 -12 180 10 349 11 84
23 214 26 289 6 102 10 131 18 119 6 -9 33 -57 61 -106 27 -50 50 -89 52 -87
2 1 -5 27 -16 57 -30 89 -42 218 -46 504 -5 357 -21 506 -93 868 -21 103 -37
187 -35 187 13 0 81 -171 164 -415 l69 -200 -6 75 c-16 219 -38 333 -105 543
l-41 127 -1321 -2 -1322 -3 1 -32 c2 -36 -9 -43 -25 -15 -8 13 -10 14 -11 2 0
-8 25 -41 55 -73 30 -32 55 -63 55 -68 0 -10 -109 90 -173 159 -29 31 -32 32
-115 32 -82 0 -85 -1 -68 -19 10 -11 14 -26 10 -37 -4 -13 -3 -15 3 -6 7 9 20
-1 49 -38 63 -82 148 -184 157 -191 5 -4 6 -12 2 -19 -5 -8 -4 -11 2 -7 16 10
54 -37 47 -59 -4 -13 -3 -15 3 -6 7 9 15 6 32 -12 13 -14 20 -29 17 -35 -5 -7
-1 -8 10 -4 14 5 16 3 11 -11 -4 -10 -3 -15 3 -11 12 7 44 -41 35 -55 -3 -6
-11 -7 -17 -4 -7 4 -8 2 -4 -5 6 -9 11 -9 21 -1 15 13 35 6 35 -12 0 -6 12
-21 26 -34 14 -14 22 -29 18 -36 -4 -7 -3 -8 4 -4 8 5 12 -1 13 -16 0 -13 3
-17 6 -11 3 10 8 10 19 -1 15 -16 19 -36 7 -36 -5 0 -30 20 -58 45 -27 24 -54
45 -59 45 -4 0 -6 7 -3 15 4 8 1 17 -5 21 -7 4 -8 3 -4 -4 14 -24 -11 -11 -47
23 -20 19 -37 32 -37 28 0 -4 -13 6 -30 22 -16 15 -27 33 -23 38 3 6 1 7 -5 3
-7 -4 -48 24 -96 66 -84 72 -86 76 -158 220 l-73 148 -72 0 c-52 0 -73 -4 -73
-12 0 -10 -3 -9 -9 1 -6 10 -11 5 -16 -18 -6 -26 -9 -30 -21 -20 -11 9 -18 9
-29 -1 -19 -16 -19 -30 0 -30 8 0 15 -4 15 -9 0 -13 -50 -51 -66 -51 -8 0 -14
-4 -14 -9 0 -4 8 -8 18 -8 56 0 52 14 52 -203 0 -174 -2 -200 -16 -200 -13 0
-15 -25 -12 -210 2 -116 0 -210 -4 -210 -10 0 -18 33 -22 88 -2 24 -9 49 -15
55 -9 9 -10 3 -5 -22 5 -22 4 -32 -3 -28 -6 4 -13 20 -16 36 -3 16 -13 35 -21
44 -8 8 -18 26 -21 40 -4 15 -13 31 -21 38 -8 6 -14 15 -14 20 0 4 -5 20 -12
36 -6 15 -12 33 -14 39 -1 7 -14 36 -29 65 -14 29 -27 70 -28 91 -1 20 -5 32
-9 26 -7 -13 -28 30 -28 57 0 8 -4 16 -9 20 -5 3 -15 22 -21 43 -7 20 -29 78
-50 127 -21 50 -46 116 -55 148 -8 31 -20 57 -25 57 -6 0 -8 -10 -5 -22 3 -13
7 -61 10 -108 3 -73 12 -147 28 -225 2 -11 2 -14 0 -7 -3 6 -8 12 -13 12 -9 0
-12 5 -65 107 -16 32 -32 60 -35 63 -4 3 -12 20 -20 38 l-13 34 -13 -24 c-7
-12 -11 -32 -9 -43 3 -11 -2 -6 -10 10 -8 17 -14 40 -15 53 0 12 -4 22 -9 22
-6 0 -13 20 -17 45 -6 41 -24 64 -24 31z m749 -81 c1 -23 -2 -26 -9 -15 -5 8
-9 31 -9 50 0 29 2 31 9 15 5 -11 9 -33 9 -50z m541 -6 c0 -14 -16 -11 -29 5
-10 12 -8 13 8 9 12 -3 21 -9 21 -14z m-571 -32 c1 -5 -3 -5 -9 -2 -5 3 -10
16 -9 28 0 21 1 21 9 2 5 -11 9 -24 9 -28z m61 -27 c0 -5 -7 -7 -15 -4 -8 4
-15 8 -15 10 0 2 7 4 15 4 8 0 15 -4 15 -10z m161 -93 c58 -51 117 -101 130
-112 13 -11 69 -58 124 -104 55 -47 102 -87 105 -89 3 -2 -3 -8 -13 -14 -45
-25 -163 -136 -203 -192 -25 -33 -53 -72 -63 -85 l-17 -25 -23 90 c-45 172
-113 420 -146 525 -27 89 -30 106 -16 102 9 -2 64 -45 122 -96z m-159 51 c-3
-14 -2 -19 6 -14 7 4 12 3 12 -3 0 -5 -4 -12 -9 -16 -12 -7 -25 31 -16 45 10
16 13 11 7 -12z m598 -204 l71 -55 -25 -20 c-13 -10 -29 -19 -34 -19 -8 0
-150 164 -212 245 -14 18 15 -4 200 -151z m-567 61 c4 -38 3 -53 -3 -40 -5 11
-9 36 -9 55 -1 27 -4 31 -11 20 -6 -8 -8 -33 -5 -55 4 -37 4 -38 -6 -12 -8 21
-8 39 2 72 16 53 24 42 32 -40z m2305 29 c1 -14 -2 -23 -8 -19 -12 7 -14 45
-2 45 4 0 9 -11 10 -26z m-2281 -56 c-3 -8 -6 -5 -6 6 -1 11 2 17 5 13 3 -3 4
-12 1 -19z m-127 -14 c0 -8 -4 -14 -10 -14 -5 0 -10 9 -10 21 0 11 5 17 10 14
6 -3 10 -13 10 -21z m147 -66 c-3 -7 -5 -2 -5 12 0 14 2 19 5 13 2 -7 2 -19 0
-25z m-160 -60 c-3 -7 -5 -2 -5 12 0 14 2 19 5 13 2 -7 2 -19 0 -25z m863 -39
c239 -198 372 -317 359 -320 -2 0 -31 -7 -64 -15 -33 -8 -72 -17 -86 -20 -23
-5 -38 7 -127 103 -55 59 -122 135 -149 168 -26 33 -58 71 -70 85 l-23 24 28
23 c15 12 32 22 37 22 6 1 48 -31 95 -70z m1499 17 c-13 -15 -18 -4 -11 29 6
30 6 30 12 5 4 -14 3 -29 -1 -34z m-2172 2 c-3 -8 -6 -5 -6 6 -1 11 2 17 5 13
3 -3 4 -12 1 -19z m6 -33 c-3 -9 -8 -14 -10 -11 -3 3 -2 9 2 15 9 16 15 13 8
-4z m-186 -17 c-3 -8 -6 -5 -6 6 -1 11 2 17 5 13 3 -3 4 -12 1 -19z m203 -40
c0 -26 -4 -38 -8 -30 -8 12 -4 72 4 72 2 0 4 -19 4 -42z m-180 -8 c0 -5 -4
-10 -10 -10 -5 0 -10 5 -10 10 0 6 5 10 10 10 6 0 10 -4 10 -10z m87 -32 c-3
-8 -6 -5 -6 6 -1 11 2 17 5 13 3 -3 4 -12 1 -19z m2275 -33 c3 -14 1 -25 -3
-25 -5 0 -9 11 -9 25 0 14 2 25 4 25 2 0 6 -11 8 -25z m-2285 -17 c-3 -7 -5
-2 -5 12 0 14 2 19 5 13 2 -7 2 -19 0 -25z m716 7 c23 -32 17 -32 -13 0 -13
14 -19 25 -14 25 5 0 17 -12 27 -25z m-696 -67 c-3 -7 -5 -2 -5 12 0 14 2 19
5 13 2 -7 2 -19 0 -25z m20 -35 c-3 -10 -5 -4 -5 12 0 17 2 24 5 18 2 -7 2
-21 0 -30z m-70 -55 c-3 -8 -6 -5 -6 6 -1 11 2 17 5 13 3 -3 4 -12 1 -19z
m1183 -38 c0 -5 -21 -9 -47 -9 -43 1 -45 2 -18 9 44 11 65 11 65 0z m-1363
-22 c-3 -8 -6 -5 -6 6 -1 11 2 17 5 13 3 -3 4 -12 1 -19z m198 -28 c-4 -23 -9
-39 -12 -36 -3 2 -2 23 2 46 4 23 9 39 12 36 3 -2 2 -23 -2 -46z m189 1 c-4
-17 -9 -30 -11 -27 -3 2 -2 19 2 36 9 41 17 33 9 -9z m-84 -16 c0 -8 -2 -15
-4 -15 -2 0 -6 7 -10 15 -3 8 -1 15 4 15 6 0 10 -7 10 -15z m-239 -26 c-5 -13
-10 -19 -10 -12 -1 15 10 45 15 40 3 -2 0 -15 -5 -28z m286 -6 c-3 -10 -5 -4
-5 12 0 17 2 24 5 18 2 -7 2 -21 0 -30z m-260 -15 c-3 -7 -5 -2 -5 12 0 14 2
19 5 13 2 -7 2 -19 0 -25z m202 -11 c1 -5 -3 -5 -9 -2 -5 3 -10 16 -9 28 0 21
1 21 9 2 5 -11 9 -24 9 -28z m135 -80 c-3 -11 -2 -17 3 -14 5 3 7 -8 4 -26
l-5 -32 -7 35 c-4 19 -5 38 -2 43 2 4 0 13 -5 20 -5 7 -12 32 -15 57 l-6 45
20 -54 c10 -30 16 -64 13 -74z m-106 72 c-3 -8 -7 -3 -11 10 -4 17 -3 21 5 13
5 -5 8 -16 6 -23z m-198 -53 c0 -6 -14 3 -30 21 -39 41 -39 55 0 18 17 -16 30
-34 30 -39z m107 39 c-15 -16 -19 -13 -11 9 3 9 10 13 15 10 5 -3 3 -11 -4
-19z m-79 -7 c15 -15 16 -28 2 -28 -5 0 -10 6 -10 14 0 8 -6 17 -12 19 -7 3
-8 6 -2 6 5 1 15 -4 22 -11z m12 -78 c0 -5 -2 -10 -4 -10 -3 0 -8 5 -11 10 -3
6 -1 10 4 10 6 0 11 -4 11 -10z m157 -22 c-3 -8 -6 -5 -6 6 -1 11 2 17 5 13 3
-3 4 -12 1 -19z m140 -86 c-3 -10 -5 -3 -6 13 -1 23 -3 27 -11 15 -8 -13 -10
-13 -10 2 0 9 3 24 7 34 5 15 9 12 15 -15 5 -18 7 -40 5 -49z m-467 16 c0 -6
-7 -8 -15 -4 -9 3 -15 0 -15 -8 0 -16 50 -28 50 -12 1 6 8 -2 16 -18 11 -19
12 -32 6 -38 -13 -13 -33 -1 -68 41 -25 30 -26 34 -11 43 21 11 23 32 3 25
-11 -4 -13 -1 -9 10 5 14 9 13 25 -7 10 -12 18 -27 18 -32z m284 -51 c4 -19 3
-26 -4 -22 -5 3 -10 18 -10 32 0 32 5 28 14 -10z m89 0 c3 -8 2 -20 -3 -26 -5
-9 -7 -4 -7 13 0 29 2 32 10 13z m104 -34 c-3 -10 -5 -2 -5 17 0 19 2 27 5 18
2 -10 2 -26 0 -35z m-29 12 c-3 -3 -9 2 -12 12 -6 14 -5 15 5 6 7 -7 10 -15 7
-18z m-891 -37 c-3 -7 -5 -2 -5 12 0 14 2 19 5 13 2 -7 2 -19 0 -25z m518 22
c3 -5 1 -10 -4 -10 -6 0 -11 5 -11 10 0 6 2 10 4 10 3 0 8 -4 11 -10z m232
-12 c-3 -8 -6 -5 -6 6 -1 11 2 17 5 13 3 -3 4 -12 1 -19z m97 -11 c7 -6 6 -7
-4 -4 -8 2 -16 12 -17 23 -2 13 -1 15 4 4 3 -8 11 -19 17 -23z m-350 -2 c3 -9
0 -15 -9 -15 -8 0 -15 7 -15 15 0 8 4 15 9 15 5 0 11 -7 15 -15z m403 -17 c-3
-8 -6 -5 -6 6 -1 11 2 17 5 13 3 -3 4 -12 1 -19z m30 0 c-3 -8 -6 -5 -6 6 -1
11 2 17 5 13 3 -3 4 -12 1 -19z m-393 -3 c3 -9 12 -12 23 -8 15 6 16 5 3 -9
-8 -8 -22 -13 -30 -10 -13 5 -13 3 -2 -11 12 -14 16 -15 29 -2 19 19 24 19 16
-1 -5 -13 -2 -15 14 -10 23 7 49 -17 37 -35 -4 -7 -3 -9 4 -5 15 9 92 -63 85
-80 -3 -8 5 -23 18 -34 33 -27 20 -25 -18 3 -22 16 -29 27 -23 37 11 17 -54
65 -76 56 -10 -4 -12 -2 -8 6 5 8 2 9 -9 5 -10 -3 -17 -2 -17 4 0 5 7 12 15
15 8 4 12 10 9 16 -3 5 -12 1 -20 -9 -8 -11 -17 -14 -21 -8 -5 6 -26 25 -47
44 -27 23 -33 31 -18 27 17 -6 21 -4 16 8 -3 9 -2 16 4 16 5 0 12 -7 16 -15z
m-478 -145 c6 -41 6 -44 -9 -31 -11 9 -17 29 -17 58 0 24 -4 42 -8 39 -5 -3
-6 9 -4 26 l5 31 13 -39 c7 -22 16 -59 20 -84z m801 88 c-3 -8 -6 -5 -6 6 -1
11 2 17 5 13 3 -3 4 -12 1 -19z m88 -10 c3 -18 7 -46 8 -63 2 -16 6 -36 11
-43 16 -26 -1 -22 -18 3 -9 14 -14 34 -11 45 3 10 1 21 -5 25 -12 8 -14 65 -1
65 5 0 12 -15 16 -32z m-55 -191 c0 -29 -31 23 -48 81 -37 123 -33 138 8 33
22 -57 40 -108 40 -114z m26 126 c-10 -10 -19 5 -10 18 6 11 8 11 12 0 2 -7 1
-15 -2 -18z m-256 -13 c0 -6 -9 -5 -20 2 -11 7 -20 16 -20 21 0 4 9 3 20 -3
11 -6 20 -15 20 -20z m115 -68 c-3 -3 -16 5 -28 17 l-22 23 28 -17 c15 -10 25
-20 22 -23z m-708 -24 c-3 -7 -5 -2 -5 12 0 14 2 19 5 13 2 -7 2 -19 0 -25z
m747 -3 c3 -8 1 -15 -3 -15 -5 0 -11 7 -15 15 -3 8 -1 15 3 15 5 0 11 -7 15
-15z m36 -30 c11 -13 10 -14 -4 -9 -9 3 -16 10 -16 15 0 13 6 11 20 -6z m21
-38 c-10 -9 -11 -8 -5 6 3 10 9 15 12 12 3 -3 0 -11 -7 -18z m-794 -9 c-3 -8
-6 -5 -6 6 -1 11 2 17 5 13 3 -3 4 -12 1 -19z m851 -11 c8 -10 6 -13 -7 -13
-11 0 -17 6 -14 13 3 7 6 13 8 13 1 0 7 -6 13 -13z m37 -37 c3 -5 1 -10 -4
-10 -6 0 -11 5 -11 10 0 6 2 10 4 10 3 0 8 -4 11 -10z m105 -87 c0 -2 -8 1
-17 6 -28 17 -53 38 -53 45 0 4 16 -5 35 -20 19 -14 35 -28 35 -31z m-60 -483
c0 -5 -2 -10 -4 -10 -3 0 -8 5 -11 10 -3 6 -1 10 4 10 6 0 11 -4 11 -10z
m-639 -147 l18 -42 -25 11 c-21 10 -24 18 -23 57 0 25 3 39 6 31 4 -8 14 -34
24 -57z m-374 -309 c-5 -5 -57 80 -57 93 0 4 14 -14 31 -41 17 -26 28 -50 26
-52z m513 -229 c-7 -9 -15 -13 -19 -10 -3 3 1 10 9 15 21 14 24 12 10 -5z"/>
<path d="M876 3732 c-3 -6 -1 -14 5 -17 14 -9 20 -2 10 14 -6 8 -11 9 -15 3z"/>
<path d="M961 4984 c0 -11 3 -14 6 -6 3 7 2 16 -1 19 -3 4 -6 -2 -5 -13z"/>
<path d="M1430 4985 c0 -8 4 -15 10 -15 5 0 7 7 4 15 -4 8 -8 15 -10 15 -2 0
-4 -7 -4 -15z"/>
<path d="M333 4891 c-1 -20 1 -29 4 -21 3 8 10 22 14 32 6 10 4 18 -4 21 -8 3
-13 -8 -14 -32z"/>
<path d="M1530 4551 c5 -11 15 -23 21 -27 6 -3 3 5 -6 20 -20 30 -30 35 -15 7z"/>
<path d="M757 4371 c-4 -17 -3 -21 5 -13 5 5 8 16 6 23 -3 8 -7 3 -11 -10z"/>
<path d="M848 4276 c-2 -60 0 -82 9 -79 6 2 13 -4 16 -14 3 -10 5 26 6 80 1
78 -2 97 -13 97 -11 0 -15 -19 -18 -84z"/>
<path d="M766 4331 c-4 -7 -5 -15 -2 -18 9 -9 19 4 14 18 -4 11 -6 11 -12 0z"/>
<path d="M3402 4289 c-1 -30 2 -49 9 -49 7 0 8 11 4 31 -5 22 -4 29 4 25 15
-9 13 5 -2 25 -11 15 -13 10 -15 -32z"/>
<path d="M788 4310 c-7 -24 -3 -38 8 -28 3 4 4 17 2 30 l-3 23 -7 -25z"/>
<path d="M3550 4295 c-6 -21 -5 -365 1 -365 15 0 19 37 18 153 -1 111 -12 237
-19 212z"/>
<path d="M4312 4240 c0 -8 4 -26 8 -40 6 -20 8 -21 8 -5 0 11 -3 29 -8 40 -5
12 -8 14 -8 5z"/>
<path d="M3417 4207 c-3 -9 -2 -19 4 -23 15 -9 18 -2 9 20 -6 17 -7 18 -13 3z"/>
<path d="M3466 4195 c4 -8 8 -15 10 -15 2 0 4 7 4 15 0 8 -4 15 -10 15 -5 0
-7 -7 -4 -15z"/>
<path d="M3486 4145 c-9 -26 -7 -32 5 -12 6 10 9 21 6 23 -2 3 -7 -2 -11 -11z"/>
<path d="M3462 3930 c0 -19 2 -27 5 -17 2 9 2 25 0 35 -3 9 -5 1 -5 -18z"/>
<path d="M321 3914 c0 -11 3 -14 6 -6 3 7 2 16 -1 19 -3 4 -6 -2 -5 -13z"/>
<path d="M710 3911 c0 -5 7 -15 17 -22 15 -13 15 -12 4 9 -12 23 -21 28 -21
13z"/>
<path d="M231 3834 c0 -11 3 -14 6 -6 3 7 2 16 -1 19 -3 4 -6 -2 -5 -13z"/>
<path d="M2236 3698 c4 -19 2 -28 -6 -28 -7 0 -10 -7 -6 -15 3 -8 1 -15 -4
-15 -6 0 -10 -7 -10 -16 0 -8 -4 -12 -10 -9 -5 3 -10 0 -10 -8 0 -7 -21 -27
-47 -44 -68 -43 -81 -46 -95 -23 -7 11 -16 20 -20 20 -15 0 -8 -30 13 -51 11
-11 18 -27 15 -35 -8 -22 1 -17 64 31 100 77 149 161 120 205 -8 11 -9 8 -4
-12z"/>
<path d="M1731 3027 c2 -1 13 -9 24 -17 19 -14 19 -14 6 3 -7 9 -18 17 -24 17
-6 0 -8 -1 -6 -3z"/>
<path d="M4810 2668 c-12 -13 -29 -36 -37 -53 l-15 -30 29 30 c16 17 28 32 26
34 -2 2 4 13 14 23 23 26 8 22 -17 -4z"/>
<path d="M4840 2660 c-11 -8 -7 -9 15 -4 37 8 45 14 19 14 -10 0 -26 -5 -34
-10z"/>
<path d="M4977 2602 c9 -29 19 -50 21 -47 5 5 -18 77 -29 89 -4 5 -1 -14 8
-42z"/>
<path d="M466 2167 c3 -10 9 -15 12 -12 3 3 0 11 -7 18 -10 9 -11 8 -5 -6z"/>
<path d="M4660 2150 c-12 -17 -21 -32 -19 -33 35 -19 45 -28 50 -48 4 -13 5 5
2 41 -3 36 -7 66 -8 68 -2 2 -13 -11 -25 -28z"/>
<path d="M955 2151 c-3 -5 -1 -12 5 -16 5 -3 10 1 10 9 0 18 -6 21 -15 7z"/>
<path d="M596 2135 c-9 -26 -7 -32 5 -12 6 10 9 21 6 23 -2 3 -7 -2 -11 -11z"/>
<path d="M611 2115 c1 -19 18 -51 18 -35 0 8 -4 22 -9 30 -5 8 -9 11 -9 5z"/>
<path d="M4601 2054 c-12 -15 -21 -23 -21 -18 0 21 -110 -167 -187 -321 -47
-93 -89 -174 -93 -180 -38 -49 -111 -381 -125 -570 -5 -77 -4 -74 39 100 25
99 63 227 86 285 23 58 66 174 96 258 30 84 63 167 74 185 10 18 41 73 68 122
27 50 59 107 72 128 26 43 21 49 -9 11z"/>
<path d="M1200 2035 c-6 -8 -9 -24 -5 -37 5 -18 4 -20 -4 -8 -14 20 -14 4 0
-21 13 -26 31 -14 23 16 -3 13 -1 33 6 44 12 24 -1 28 -20 6z"/>
<path d="M1160 2020 c0 -5 5 -10 10 -10 6 0 10 5 10 10 0 6 -4 10 -10 10 -5 0
-10 -4 -10 -10z"/>
<path d="M4701 2004 c0 -11 3 -14 6 -6 3 7 2 16 -1 19 -3 4 -6 -2 -5 -13z"/>
<path d="M1291 1924 c0 -11 3 -14 6 -6 3 7 2 16 -1 19 -3 4 -6 -2 -5 -13z"/>
<path d="M4746 1875 c3 -11 11 -31 17 -45 8 -22 1 -40 -53 -135 -125 -220
-139 -245 -134 -245 2 0 52 72 111 161 87 134 108 159 119 147 7 -7 30 -51 51
-98 l38 -85 0 -145 c0 -161 -10 -212 -71 -367 -20 -48 -48 -122 -63 -163 -16
-41 -74 -172 -129 -291 -102 -219 -157 -380 -168 -491 -3 -29 -7 -68 -9 -86
-2 -17 0 -32 5 -32 4 0 11 33 14 73 11 115 33 204 85 337 47 118 221 468 285
570 l46 74 0 -41 c0 -26 11 -61 30 -98 23 -44 30 -70 30 -114 0 -31 7 -111 15
-176 8 -66 15 -156 16 -200 1 -44 4 -91 8 -105 4 -14 8 87 10 223 l2 248 -47
92 -47 91 7 286 c8 332 9 327 -81 476 -33 55 -68 113 -77 129 -10 17 -14 21
-10 10z"/>
<path d="M1948 1723 c7 -3 16 -2 19 1 4 3 -2 6 -13 5 -11 0 -14 -3 -6 -6z"/>
<path d="M1982 1714 c9 -9 207 -53 272 -60 42 -5 57 -4 52 4 -4 6 -21 9 -39 6
-25 -3 -28 -2 -12 5 17 8 15 10 -15 12 -95 7 -149 15 -199 29 -40 11 -67 13
-59 4z"/>
<path d="M2395 1630 c100 -24 114 -24 50 0 -27 10 -68 18 -90 18 -32 0 -25 -3
40 -18z"/>
<path d="M3182 1236 c-19 -43 -64 -177 -60 -181 2 -3 21 41 41 97 34 94 45
140 19 84z"/>
<path d="M3096 1015 c-3 -9 -6 -22 -5 -28 0 -7 5 -1 10 12 5 13 8 26 5 28 -2
2 -6 -3 -10 -12z"/>
<path d="M3039 832 c-14 -2 -15 -10 -7 -45 5 -23 17 -105 27 -182 10 -77 19
-122 20 -100 0 22 -6 87 -14 145 -20 148 -20 170 5 170 11 0 20 4 20 8 0 8
-23 10 -51 4z"/>
<path d="M3113 833 c9 -2 23 -2 30 0 6 3 -1 5 -18 5 -16 0 -22 -2 -12 -5z"/>
<path d="M3436 655 c122 -121 247 -217 405 -308 91 -54 60 -25 -53 47 -167
107 -222 149 -323 251 -49 49 -105 101 -123 114 -18 13 24 -34 94 -104z"/>
<path d="M2570 586 c-367 -113 -459 -136 -542 -136 -46 0 -128 7 -183 16 -55
9 -104 16 -110 16 -10 0 -188 -40 -370 -83 -119 -28 -240 -67 -284 -92 -57
-32 -152 -135 -204 -220 -26 -43 -47 -80 -47 -83 0 -2 213 -4 474 -4 403 1
476 3 487 16 19 23 109 65 102 48 -3 -8 0 -14 6 -14 6 0 11 5 11 11 0 17 27
-15 32 -37 3 -18 14 -19 175 -22 l172 -2 16 30 c8 16 20 30 25 30 6 0 10 9 10
19 0 11 4 22 9 26 10 6 16 -9 27 -67 6 -38 18 -49 27 -25 4 9 6 9 6 0 1 -7 8
-13 16 -13 19 0 19 -2 -6 55 -26 60 -40 105 -31 105 14 0 41 87 47 151 4 36
10 71 14 76 9 14 117 68 167 83 36 11 45 10 81 -8 62 -32 143 -111 211 -208
71 -99 81 -102 20 -5 -38 61 -62 95 -205 289 -29 39 -59 72 -66 71 -6 0 -46
-10 -87 -23z m-605 -476 c3 -5 1 -10 -4 -10 -6 0 -11 5 -11 10 0 6 2 10 4 10
3 0 8 -4 11 -10z m33 -25 c-3 -3 -9 2 -12 12 -6 14 -5 15 5 6 7 -7 10 -15 7
-18z m-8 -30 c0 -5 -5 -3 -10 5 -5 8 -10 20 -10 25 0 6 5 3 10 -5 5 -8 10 -19
10 -25z"/>
<path d="M4132 530 c0 -14 2 -19 5 -12 2 6 2 18 0 25 -3 6 -5 1 -5 -13z"/>
<path d="M3080 447 c-3 -3 -3 -45 0 -94 4 -69 1 -99 -13 -138 -45 -122 -73
-237 -53 -214 2 2 13 38 25 79 12 41 34 103 47 138 18 44 22 67 15 76 -5 6
-11 45 -13 85 -2 40 -5 71 -8 68z"/>
<path d="M3910 311 c0 -9 30 -24 36 -18 2 1 -6 8 -16 15 -11 7 -20 8 -20 3z"/>
<path d="M1843 38 c-43 -21 -33 -33 28 -36 44 -2 59 0 59 10 -1 33 -45 46 -87
26z"/>
</g>
</svg>
